HIERARCHY
ROOT Hips
{
	OFFSET 0.000000 0.000000 0.000000
	CHANNELS 6 Xposition Yposition Zposition Zrotation Yrotation Xrotation 
	JOINT LHipJoint
	{
		OFFSET 0.000000 0.000000 0.000000
		CHANNELS 3 Zrotation Yrotation Xrotation
		JOINT LeftUpLeg
		{
			OFFSET 1.363060 -1.794630 0.839290
			CHANNELS 3 Zrotation Yrotation Xrotation
			JOINT LeftLeg
			{
				OFFSET 2.448110 -6.726130 0.000000
				CHANNELS 3 Zrotation Yrotation Xrotation
				JOINT LeftFoot
				{
					OFFSET 2.562200 -7.039590 0.000000
					CHANNELS 3 Zrotation Yrotation Xrotation
					JOINT LeftToeBase
					{
						OFFSET 0.157640 -0.433110 2.322550
						CHANNELS 3 Zrotation Yrotation Xrotation
						End Site
						{
							OFFSET 0.000000 0.000000 0.000000
						}
					}
				}
			}
		}
	}
	JOINT RHipJoint
	{
		OFFSET 0.000000 0.000000 0.000000
		CHANNELS 3 Zrotation Yrotation Xrotation
		JOINT RightUpLeg
		{
			OFFSET -1.305520 -1.794630 0.839290
			CHANNELS 3 Zrotation Yrotation Xrotation
			JOINT RightLeg
			{
				OFFSET -2.542530 -6.985550 0.000000
				CHANNELS 3 Zrotation Yrotation Xrotation
				JOINT RightFoot
				{
					OFFSET -2.568260 -7.056230 0.000000
					CHANNELS 3 Zrotation Yrotation Xrotation
					JOINT RightToeBase
					{
						OFFSET -0.164730 -0.452590 2.363150
						CHANNELS 3 Zrotation Yrotation Xrotation
						End Site
						{
							OFFSET 0.000000 0.000000 0.000000
						}
					}
				}
			}
		}
	}
}
MOTION
Frames: 22
Frame Time: 0.008333
3.122586 16.678998 0.903021 176.774665 -86.133104 -167.678777 -11.014249 2.278158 3.192595 -4.892806 6.517398 -26.814476 -1.605504 0.997170 33.809150 2.424659 12.171571 -15.877824 -1.855700 0.000000 -46.629300 9.950200 -1.029144 2.482576 0.237005 -5.727806 -23.606184 1.284439 -0.973764 31.112529 -1.173910 -3.710564 -10.223173 0.089900 0.000000 -70.650600
3.116932 16.652332 0.913784 123.657119 -89.864120 -114.300979 -11.010798 1.491446 3.429661 -4.531377 4.454916 -27.558985 -1.295384 0.678380 34.945726 2.401742 11.799722 -16.154803 -1.893600 -0.000000 -46.601600 9.926782 -1.728791 2.449456 0.647360 -7.200410 -23.833794 1.525074 -1.330998 31.386750 -1.371224 -4.620859 -10.806404 0.154500 0.000000 -70.417201
3.106555 16.626101 0.937212 -10.717746 -89.052440 20.427909 -11.153302 2.097259 4.284506 -3.736591 2.170787 -29.117575 -1.334081 1.087405 35.961666 2.439337 11.783113 -16.500327 -1.898000 0.000000 -46.689300 9.714112 -1.149540 1.940788 1.489992 -8.857654 -23.797123 1.420258 -0.974611 31.706635 -1.471693 -5.150354 -11.159063 0.223100 0.000001 -70.165300
3.099725 16.603347 0.947774 -8.573248 -87.028541 18.536699 -11.057508 2.106027 4.720715 -3.240536 0.477706 -30.063447 -1.255684 1.131450 36.693598 2.416943 11.462969 -16.699906 -1.881200 0.000000 -46.750400 9.763550 -1.131667 1.751453 1.977911 -9.966908 -23.861868 1.434796 -0.963516 32.018036 -1.636862 -5.960925 -11.595714 0.302700 0.000000 -69.876699
3.092254 16.583660 0.957287 -7.549900 -84.876185 17.771170 -10.976907 2.099823 5.164510 -2.712804 -1.222083 -30.991132 -1.177633 1.160526 37.301700 2.373737 11.047736 -16.813462 -1.833300 -0.000000 -46.878300 9.792394 -1.142269 1.558802 2.475229 -11.120473 -23.883269 1.457285 -0.954040 32.227380 -1.809763 -6.817967 -11.981595 0.386400 -0.000000 -69.576300
3.084241 16.567853 0.965089 -6.876272 -82.640066 17.350515 -10.893510 2.093737 5.606999 -2.160020 -2.892348 -31.878872 -1.105883 1.177812 37.758922 2.308306 10.533831 -16.829227 -1.752900 0.000000 -47.089701 9.818567 -1.167748 1.362067 2.976553 -12.306794 -23.849511 1.484355 -0.941492 32.322289 -1.986318 -7.705754 -12.304061 0.470200 -0.000000 -69.271200
3.075276 16.556694 0.971250 -6.397162 -80.342247 17.125154 -10.804807 2.090506 6.044611 -1.579661 -4.509861 -32.727291 -1.041840 1.183373 38.052854 2.220101 9.919256 -16.738634 -1.640400 0.000000 -47.399200 9.843632 -1.207661 1.165261 3.491294 -13.512040 -23.761657 1.516551 -0.923163 32.280409 -2.164849 -8.619571 -12.549008 0.548600 0.000001 -68.965399
3.065179 16.550990 0.975295 -5.990453 -78.005485 16.969254 -10.705602 2.092112 6.471433 -0.988295 -6.063846 -33.512921 -0.986864 1.175330 38.159211 2.111170 9.217847 -16.531969 -1.499700 0.000000 -47.807100 9.873157 -1.260095 0.970085 4.006519 -14.730061 -23.612058 1.553868 -0.897935 32.083300 -2.342300 -9.547098 -12.707282 0.615899 0.000000 -68.658600
3.053658 16.551456 0.977358 -5.632871 -75.646814 16.862643 -10.594934 2.098724 6.886486 -0.390809 -7.553126 -34.228299 -0.940474 1.152442 38.063886 1.984894 8.448291 -16.203529 -1.336700 -0.000000 -48.307100 9.907715 -1.325509 0.780305 4.522979 -15.949472 -23.398748 1.596983 -0.863629 31.707300 -2.517301 -10.484224 -12.768500 0.665300 -0.000000 -68.345900
3.040310 16.558692 0.977660 -5.298394 -73.281121 16.782957 -10.470906 2.111155 7.290133 0.204802 -8.987365 -34.859795 -0.901863 1.113423 37.752078 1.846261 7.638324 -15.749814 -1.159400 -0.000001 -48.882600 9.949313 -1.403447 0.599139 5.035160 -17.160235 -23.115944 1.645999 -0.817941 31.130141 -2.688457 -11.426522 -12.724005 0.689600 -0.000001 -68.020699
3.025169 16.573110 0.976515 -4.968643 -70.922918 16.708287 -10.331434 2.130185 7.682965 0.789868 -10.384052 -35.387886 -0.870096 1.057558 37.210311 1.701337 6.822451 -15.170572 -0.977100 -0.000000 -49.508300 10.000524 -1.492130 0.428087 5.532908 -18.353913 -22.752585 1.700122 -0.758669 30.333247 -2.854433 -12.370558 -12.566365 0.681500 0.000000 -67.673800
3.008348 16.594886 0.974542 -4.643899 -68.585225 16.636678 -10.176445 2.156342 8.066271 1.363105 -11.763106 -35.798183 -0.843817 0.985451 36.433414 1.556205 6.035402 -14.470265 -0.798100 0.000000 -50.156700 10.061931 -1.589844 0.268231 6.010662 -19.517158 -22.295491 1.757724 -0.683105 29.299110 -3.014724 -13.318298 -12.285904 0.632701 0.000000 -67.307500
2.990229 16.623917 0.971796 -4.297618 -66.285435 16.528259 -10.003646 2.190777 8.438411 1.909538 -13.148740 -36.054607 -0.823076 0.897829 35.413859 1.417658 5.318428 -13.656235 -0.630400 -0.000001 -50.789701 10.138129 -1.692048 0.117716 6.441150 -20.643991 -21.721388 1.815406 -0.590121 28.024115 -3.167185 -14.264276 -11.878512 0.536000 0.000000 -66.909100
2.971417 16.659814 0.968705 -3.931770 -64.043765 16.372956 -9.815054 2.233025 8.796771 2.425279 -14.557776 -36.132587 -0.807502 0.797320 34.157954 1.291235 4.705720 -12.740089 -0.478500 0.000000 -51.377901 10.229424 -1.795139 -0.025382 6.807254 -21.718323 -21.008303 1.868685 -0.478665 26.508057 -3.310928 -15.211077 -11.335433 0.382700 0.000000 -66.496600
2.952804 16.701857 0.965047 -3.533732 -61.887330 16.136918 -9.612724 2.281938 9.135554 2.894745 -16.001767 -35.995576 -0.798048 0.687094 32.677656 1.182272 4.231365 -11.737280 -0.343900 0.000001 -51.887200 10.337733 -1.894199 -0.164560 7.076824 -22.728022 -20.131117 1.911679 -0.350089 24.769021 -3.443707 -16.153793 -10.654971 0.166300 -0.000000 -66.061300
2.935226 16.749090 0.960582 -3.100953 -59.849723 15.799489 -9.402256 2.334254 9.446766 3.304886 -17.480087 -35.616166 -0.795675 0.571395 30.997725 1.094657 3.920748 -10.665312 -0.224400 -0.000000 -52.294400 10.461852 -1.985293 -0.303072 7.222961 -23.653227 -19.071513 1.937887 -0.207471 22.835324 -3.564093 -17.090616 -9.835271 -0.119800 -0.000000 -65.629000
2.919592 16.800282 0.954747 -2.630271 -57.970404 15.340570 -9.191491 2.385029 9.720735 3.637478 -18.978243 -34.974606 -0.801681 0.454823 29.155768 1.031029 3.790815 -9.544762 -0.114600 0.000000 -52.582200 10.598742 -2.065712 -0.443290 7.220962 -24.472030 -17.821911 1.941259 -0.056569 20.752724 -3.670478 -18.014289 -8.882818 -0.478600 -0.000001 -65.207000
2.906551 16.854036 0.946859 -2.120185 -56.291972 14.748716 -8.990379 2.427904 9.946711 3.872307 -20.466614 -34.064521 -0.817197 0.341754 27.200303 0.992261 3.846687 -8.396892 -0.007100 -0.000000 -52.744200 10.743024 -2.134364 -0.586444 7.054530 -25.160701 -16.390778 1.917329 0.094571 18.580289 -3.761575 -18.913508 -7.810780 -0.909500 -0.000000 -64.813200
2.896766 16.908867 0.936500 -1.582997 -54.855698 14.034662 -8.811250 2.456123 10.115040 3.994478 -21.894108 -32.907855 -0.842188 0.236120 25.197019 0.976437 4.073533 -7.245295 0.105900 0.000000 -52.786599 10.885492 -2.193378 -0.729672 6.731228 -25.691928 -14.812735 1.865200 0.236873 16.387831 -3.837031 -19.772637 -6.644776 -1.405300 -0.000000 -64.429900
2.890444 16.963385 0.923042 -1.020542 -53.700131 13.206427 -8.663934 2.464026 10.215606 3.981202 -23.198408 -31.532647 -0.876881 0.139893 23.208034 0.980014 4.445816 -6.110542 0.230700 -0.000000 -52.729800 11.018851 -2.244821 -0.870126 6.262185 -26.050152 -13.137769 1.787100 0.360572 14.251309 -3.895441 -20.565017 -5.416766 -1.951600 0.000001 -64.083000
2.887346 17.016325 0.906324 -0.443513 -52.855024 12.291089 -8.556815 2.449010 10.241591 3.819854 -24.299404 -29.991947 -0.920450 0.053550 21.301111 0.996314 4.915697 -5.013281 0.369900 0.000000 -52.607100 11.135847 -2.293115 -1.000059 5.680756 -26.225792 -11.437609 1.689442 0.458041 12.244725 -3.935456 -21.257409 -4.169176 -2.524400 0.000000 -63.766000
2.887104 17.066724 0.886302 0.136793 -52.340668 11.316855 -8.494501 2.411641 10.188038 3.501691 -25.111357 -28.344866 -0.971884 -0.024078 19.533032 1.016890 5.423484 -3.969394 0.521300 -0.000000 -52.464300 11.232443 -2.342484 -1.110529 5.025237 -26.223123 -9.790057 1.580935 0.524407 10.431716 -3.955033 -21.812326 -2.945333 -3.093400 0.000000 -63.489000
